<svg height="40" viewBox="0 0 94 40" width="94" xmlns="http://www.w3.org/2000/svg"><g fill="none" fill-rule="evenodd"><path d="m94.368932 31.5690712c0 2.4471614-2.0146441 4.4309288-4.4998947 4.4309288h-85.36914261c-2.4852506 0-4.49989469-1.9837674-4.49989469-4.4309288v-23.13814241c0-2.44716137 2.01464409-4.43092879 4.49989469-4.43092879h85.36914261c2.4852506 0 4.4998947 1.98376742 4.4998947 4.43092879z" fill="#1d7389"/><path d="m29 35v-30h-24.42266631c-1.98287819 0-3.57733369 1.54345723-3.57733369 3.43092879v23.13814241c0 1.8874716 1.5944555 3.4309288 3.57733369 3.4309288z" fill="#fff" fill-rule="nonzero" stroke="#1d7389" stroke-width="2"/><g fill="#1d7389"><path d="m12.5155039 15-1.170642 1.8287892c-.5868142.9169358-.4052079 2.5415851.3962489 3.1980518l2.1703165 1.7775425c.3723582.3051511.4016616.6073376.2250947.9298534l.3152446.2657631 1.0984101-1.726931c.6790172-1.0668643.6198505-2.5189264-.3871032-3.350945l-2.1882345-1.80846c-.2622372-.216634-.2891142-.5190322-.1440905-.8582773z"/><path d="m14.533676 7-1.9998134 2.71737599c-.9378478 1.27437371-.5968309 3.45064901.6844916 4.37448431l3.2876901 2.3706611c.6664679.4805312.7533095 1.7043968.2681028 2.3320253l.278958.2054533 2.2675066-3.134923c1.0185449-1.4075863.9593534-3.4874736-.6396372-4.6282322l-3.5166732-2.50870314c-.4921703-.35114196-.7379483-.94798269-.3279087-1.51785894z"/><path d="m10 24.2712649h2.5058584l.44679 1.7287351h4.0948969l.4467899-1.7287351h2.5056648l-.3284594-1.2712649c-3.1141667 0-6.2287208 0-9.3430812 0z"/></g><path d="m24 32.7297705c0-.0359299-.0072661-.0676328-.0217984-.0954106-.0140781-.0277778-.037693-.0531401-.0712988-.076087-.0336058-.0229468-.0781108-.044384-.1339691-.0637077s-.1248865-.0389493-.2075386-.057971c-.0758401-.017814-.1366939-.0341184-.1834696-.0486111-.0463215-.0147947-.0826521-.0298913-.1085377-.0449879-.0249773-.0153986-.0422343-.0310991-.0508628-.0471015-.0086285-.0163043-.0127157-.0344203-.0127157-.0549517 0-.0190217.0054496-.0374396.0158946-.0543478.0108992-.0172101.0277021-.0323068.051317-.0452899.0236149-.0126811.0535876-.0232487.0908265-.0307971.0372389-.0081521.0817439-.0117753.1330609-.0117753.075386 0 .1412352.0072464.1961853.0226449.05495.0153986.1094459.0374396.1634877.067029l.1076294-.0842391c-.0631244-.0323068-.1298819-.0576691-.2007266-.0763889-.0703905-.018116-.1562216-.0277778-.2556767-.0277778-.0703905 0-.1335149.0057367-.1916439.0166063-.058129.0111715-.1071753.0277778-.1480472.049215-.0404178.0217391-.0726613.0480072-.0949138.0785024-.0227066.0304951-.034514.0649154-.034514.1038647 0 .0350242.0077202.0658213.0222525.0923913.0149863.026872.0395095.0513285.0726612.0730676.0340599.0217392.0781108.0416667.1330608.0606884.0549501.0190218.12307.0377416.2048138.0561595.0681199.0157005.1253406.0314009.171208.0464976.0454133.0150966.082198.0307971.1103543.0464975.0272479.0157005.0472297.0326087.0585831.0510266.0113533.0184179.017257.0389493.017257.0609903 0 .0516305-.0290645.0923914-.0867393.1216788-.058129.0295894-.1366939.044686-.2366031.044686-.0767484 0-.1485014-.0108696-.2138965-.0323068-.0658492-.0211352-.1271571-.049215-.1843778-.0842391l-.1112625.080314c.0599455.0389493.1330609.0709541.219346.0963164.0862852.0253623.181199.0380435.2838329.0380435.078565 0 .1480473-.0069444.2098093-.0208333.0613079-.013587.1135331-.0329107.1562216-.0567633.0431426-.0241546.075386-.0528382.0976385-.0857488.0217984-.0332126.0331517-.0688406.0331517-.1068841" fill="#1c5d85"/><path d="m24 32.974795v-.974795h-.1408006l-.2766854.5836623c-.0063202.0136654-.0136938.0297601-.0221207.0470696-.008427.0179167-.0161517.0355299-.0242276.053143-.0073736.0176131-.0147472.0343152-.0214185.0501063-.0066714.015791-.011236.028849-.0147472.0388703-.0035112-.0100213-.0087781-.0227756-.0147472-.038263-.0070225-.0154874-.0140449-.0315821-.0217697-.0491952-.0077247-.0179168-.0161516-.0352263-.0238764-.0531431-.0084269-.0176131-.0158005-.0337078-.0221207-.0485879l-.2735253-.5836623h-.1439607v.974795h.1242978v-.7643486c.0031601.0091102.0073735.0206499.0122893.0340115.0045646.0136654.0105337.0273307.0168539.0419071.005618.013969.0122893.0291528.0186096.0443365.0066713.0154874.0133427.0291527.020014.0412997l.3044242.6279988.309691-.6279988c.0066713-.013058.0133427-.027027.020014-.0419071.0063202-.01488.0133427-.0297601.0196629-.0437291.0066714-.0145764.0122894-.0282417.0172051-.0419071.0052669-.0133616.0091292-.0249013.0126404-.0340115v.7643486z" fill="#1c5d85"/><g fill="#1d7389"><path d="m9.86962731 31.8661816h-1.61160598v-1.3687652h1.61160598c1.18505939 0 1.11313689 1.3687652 0 1.3687652zm-1.61160598-3.7192872h1.44510316c.90277371 0 .93540911 1.2799747.05674815 1.2799747h-1.50185131zm3.72064177 2.9570811c-.1147435-.7868818-.4271702-.9752188-1.0520235-1.2546662.4724856-.280502.7628781-.6932405.7628781-1.2584625 0-1.130444-.9127514-1.5908468-1.90823458-1.5908468h-2.78128312v6h2.75529953c1.17653677 0 2.42374897-.5219867 2.22336357-1.8960245z"/><path d="m15.8696495 31.8661816h-1.6116185v-1.3687652h1.6116185c1.1850685 0 1.1129376 1.3687652 0 1.3687652zm-1.6116185-3.7192872h1.4451144c.9029885 0 .9354163 1.2799747.0567486 1.2799747h-1.501863zm3.7206705 2.9570811c-.1147444-.7868818-.4273813-.9752188-1.0520316-1.2546662.4724892-.280502.7626762-.6932405.7626762-1.2584625 0-1.130444-.9123428-1.5908468-1.9080415-1.5908468h-2.7813046v6h2.7553208c1.1765459 0 2.4235598-.5219867 2.2233807-1.8960245z"/><path d="m20.8694433 31.8661816h-1.6114115v-1.3687652h1.6114115c1.1852772 0 1.1131461 1.3687652 0 1.3687652zm-1.6114115-3.7192872h1.4449073c.9029891 0 .9354169 1.2799747.0569565 1.2799747h-1.5018638zm3.7206727 2.9570811c-.1147445-.7868818-.4271737-.9752188-1.0520322-1.2546662.4724895-.280502.7626766-.6932405.7626766-1.2584625 0-1.130444-.9125512-1.5908468-1.9080426-1.5908468h-2.7813063v6h2.7553225c1.1763387 0 2.4235612-.5219867 2.223382-1.8960245z"/></g><g fill="#fffffe" transform="translate(32.621359 13.592233)"><path d="m12.3396949 1.32366158c-.3984124-.46460471-1.0254745-.89126213-1.6170564-1.05478502-.257231-.07115118-.5435359-.10660194-.85866852-.10660194-.44350168 0-.84881293.08213592-1.21519459.24565881-.36662805.16402219-.68176062.39295423-.94539773.68654646-.2636371.29359223-.46961899.64610263-.61745288 1.05728155-.14783389.41092927-.22175084.86380028-.22175084 1.35861304 0 .5132871.07071388.97539528.21214163 1.38632455.14142776.41142857.34223546.7621914.60291589 1.05303745.26068043.29034674.57063882.51453536.93086073.67231622.36022192.15753121.76208371.23667129 1.20558538.23667129.81727503 0 2.23303093-.45337031 2.63637103-1.2604993l-.9601811-.86255201c-.2729999.44038835-1.1257551.83359223-1.63750673.83359223-.25082483 0-.47602513-.05217753-.6751081-.15753121-.19932936-.10535367-.36810639-.25040222-.50633107-.43589459-.13847108-.18549237-.24269397-.40368932-.31365424-.65384188-.07071388-.25015257-.10594762-.5207767-.10594762-.81162275 0-.3028294.03523374-.57969487.10594762-.83009709.07096027-.25040222.17370482-.46685159.30872644-.64934813.13502162-.18224687.30232031-.32454923.50164967-.42640776.19908297-.10210819.42428327-.15303745.6751081-.15303745.50707023 0 1.22357183.34027739 1.55866203.78715673z"/><path d="m30.8280476 6.75661581v-1.27073509h-3.4819809v-1.56757281h2.8021914v-1.26099862h-2.8021914v-1.12244105h3.3375965v-1.27048544h-4.6880591v6.49223301z"/><path d="m35.790585 4.32199723c-.0835262.24416088-.209185.45262136-.3759909.62588072-.1670523.17300971-.3814114.30757281-.6418455.40343966-.2601876.09586686-.5674357.14380028-.9205123.14380028h-.6657453v-3.96923717h.7137913c.7135449 0 1.2277605.16527046 1.5433858.49606103.3146398.33054091.4725757.82710125.4725757 1.48843273 0 .29683773-.0416399.56721221-.1256588.81162275zm1.2592983-2.31877948c-.1705017-.41117892-.4053112-.74646324-.7046748-1.00635228-.2988709-.25938974-.6521939-.44662969-1.0607082-.56097088-.4082679-.11434119-.8542335-.17151179-1.3364184-.17151179h-2.1127927v6.49223301h2.0169471c.4306894 0 .8532479-.06216366 1.2681684-.18549237.4149204-.12382802.7842588-.31705964 1.1092469-.57969487.3244954-.26288488.5854222-.59991678.7810558-1.0110957.1961262-.41092926.2941894-.90124827.2941894-1.46995839 0-.5934258-.0850045-1.09572816-.2550135-1.50715673z"/><path d="m38.6117484 6.75661581h1.3504626v-6.49223301h-1.3504626z"/><path d="m46.2557461 1.54435506v-1.27997226h-5.2283919v1.27997226h1.9390878v5.21226075h1.3502162v-5.21226075z"/><path d="m56.9229469 4.32199723c-.0832798.24416088-.2086922.45262136-.3754981.62588072-.1675451.17300971-.3816578.30757281-.6420919.40343966-.2601876.09586686-.5671893.14380028-.9212515.14380028h-.6657453v-3.96923717h.7142841c.7137913 0 1.2280069.16527046 1.5436322.49606103.3146398.33054091.4725757.82710125.4725757 1.48843273 0 .29683773-.0418863.56721221-.1259052.81162275zm1.259052-2.31877948c-.1702554-.41117892-.4048185-.74646324-.7044285-1.00635228-.2986245-.25938974-.6524403-.44662969-1.0602154-.56097088-.4087607-.11434119-.8542335-.17151179-1.3364184-.17151179h-2.1127927v6.49223301h2.0159615c.4306894 0 .8539871-.06216366 1.2689076-.18549237.4149204-.12382802.7842588-.31705964 1.1094933-.57969487.324249-.26288488.5846831-.59991678.7808094-1.0110957.1961263-.41092926.2944358-.90124827.2944358-1.46995839 0-.5934258-.0854973-1.09572816-.2557526-1.50715673z"/><path d="m51.9562209 6.75661581v-1.27073509h-3.4824737v-1.56757281h2.8019451v-1.26099862h-2.8019451v-1.12244105h3.3375965v-1.27048544h-4.688059v6.49223301z"/><path d="m18.5748356 1.32366158c-.3984123-.46460471-1.0254744-.89126213-1.6170564-1.05478502-.2572309-.07115118-.5432895-.10660194-.8584221-.10660194-.4435017 0-.8488129.08213592-1.215441.24565881-.366628.16402219-.6817606.39295423-.9453977.68654646s-.4693726.64610263-.6174529 1.05728155c-.1478339.41092927-.2217508.86380028-.2217508 1.35861304 0 .5132871.0707139.97539528.2121416 1.38632455.1416742.41142857.3424819.7621914.6031623 1.05303745.260434.29034674.5706388.51453536.9306143.67231622.3602219.15753121.7620837.23667129 1.2058318.23667129.817275 0 2.2330309-.45337031 2.6361247-1.2604993l-.9601812-.86255201c-.2729999.44038835-1.125755.83359223-1.6372603.83359223-.2510712 0-.4760251-.05217753-.6753545-.15753121-.1993294-.10535367-.3681064-.25040222-.5065775-.43589459-.1382246-.18549237-.2424475-.40368932-.3134078-.65384188-.0707139-.25015257-.1059476-.5207767-.1059476-.81162275 0-.3028294.0352337-.57969487.1059476-.83009709.0709603-.25040222.1737048-.46685159.3087264-.64934813.1350217-.18224687.3023203-.32454923.5014033-.42640776.1995758-.10210819.4245297-.15303745.6756009-.15303745.5068239 0 1.2235718.34027739 1.5584156.78715673z"/><path d="m2.61567431 4.07633842.43389247-1.17811373c.07096027-.19148405.13674635-.37697642.19785102-.55622746.06110468-.1795007.10767235-.33079057.13994942-.45461859.03203068.12382802.07859835.27511789.13970303.45461859.06110467.17925104.12689075.36474341.19785102.55622746l.43413886 1.17811373zm1.45641021-3.81195562h-1.31177939l-2.58536836 6.49223301h1.4470474l.53047728-1.44674064h2.46956515l.53047728 1.44674064h1.48548421z"/><path d="m22.7501575 3.19531207h-1.7651367v-1.66943135h1.7651367c.3023203 0 .5388545.06316228.7091099.18998613.1702553.1265742.2555062.33852982.2555062.63511789 0 .5624688-.3215387.84432733-.9646161.84432733zm.904497 1.09447989c.4306894-.1607767.9106568-.45337032 1.1260015-.7654369.215591-.31231623.3235098-.71276005.3235098-1.20108183 0-.34626907-.0613511-.64760055-.183314-.9042441-.1224558-.25664355-.2895081-.47134536-.5018961-.64460472-.2121416-.17325936-.4597634-.30133148-.7426189-.38496532-.2831019-.08338419-.5822192-.12507629-.8971053-.12507629h-3.1449197v6.49223301h1.350709v-2.33725381l1.2033679.05567267 1.4113209 2.28158114h1.552995z"/></g><g fill="#fffffe" transform="translate(32.621359 22.718447)"><path d="m32.9991539 6.65101248v-1.27048543h-3.4799198v-1.56732317h2.8005327v-1.26149792h-2.8005327v-1.1221914h3.3356208v-1.27048543h-4.6857764v6.49198335z"/><path d="m3.83106362 5.19054092c-.15316374.15128987-.3898042.22693481-.70918262.22693481h-1.74710094v-1.67841886h1.74710094c.62619841 0 .93917449.27786407.93917449.83434119 0 .25988904-.07658188.46535367-.22999187.61714286zm-2.45628356-3.83542303h1.67224277c.2878592 0 .49445789.05267684.61979607.15803051.12509193.10485437.1876379.25963939.1876379.46360611 0 .17925104-.05466616.32604715-.16424473.44038835-.10957856.1148405-.30214134.17176144-.57768834.17176144h-1.73774367zm3.77590498 2.3095423c-.17507946-.23492371-.39448284-.41092926-.65747139-.52851595.21915713-.13006934.38980419-.3028294.5119412-.51952843.12213701-.21644937.18320551-.4636061.18320551-.74196949 0-.55647711-.18788414-.98138696-.56365244-1.27497919-.37576829-.29409154-.88278461-.440638-1.52129522-.440638h-3.01525736v6.49198335h2.98693931c.3506514 0 .66978358-.04443828.95788902-.1340638.28810544-.09012482.53385692-.22294036.73750068-.39919556.20339752-.1762552.36148614-.39545076.47401964-.65833564.11277973-.26263523.1691696-.56421637.1691696-.90424411 0-.35875173-.08766285-.65533981-.26298855-.89051318z"/><path d="m11.6168053 3.78549237v-3.62646324h-1.3149427v3.64493758c0 .52527046-.1204133.93644938-.36148618 1.23353676-.24107285.29658807-.57153225.44513176-.99088572.44513176-.41959972 0-.74833541-.15153953-.98620709-.45461859-.23787167-.3028294-.35705375-.71725381-.35705375-1.24252427v-3.62646324h-1.31494277v3.64493758c0 .47583912.06402343.8962552.19256278 1.26099862.1282931.36499306.30829744.67256588.54001301.9229681.23171558.25040221.51218745.440638.8406769.57045769.3287357.13006935.69022184.1949792 1.08495092.1949792.83895319 0 1.4932234-.25839112 1.9628107-.77442441.4698334-.5165326.7045039-1.24751734.7045039-2.19345354"/><path d="m17.660371 4.68499307c0-.35251041-.0657471-.6431068-.1972414-.87178919-.1314943-.22868238-.3021414-.41717059-.5119412-.56571428-.2097999-.14854369-.4447166-.2643828-.7042578-.34801665-.2600336-.08338418-.5215447-.15628294-.7845332-.21794729-.2627424-.06166436-.4789446-.11758669-.6481142-.16701803-.1686771-.04918169-.3033725-.10185853-.4038401-.15753121-.099975-.05542302-.170647-.1190846-.2112773-.19023578-.0406302-.07090153-.0610685-.15877947-.0610685-.26413315 0-.07439667.0157596-.1452982.0467864-.21345354.0312729-.06790568.0847079-.12957004.1598123-.18549237.0753506-.05567268.1721245-.10036061.2913066-.13431345.1189358-.03395285.2661897-.05117892.4412692-.05117892.3006639 0 .571286.0571706.8126051.17151179.2410728.11434119.4681098.28011096.6808645.49631068l.9485318-.90898752c-.3129761-.32130374-.6619038-.57195562-1.0467831-.750957-.385618-.17975035-.8345208-.26912622-1.3481857-.26912622-.3255345 0-.6308771.04343967-.9157813.1298197-.2849043.08662968-.5336107.21170596-.7466117.37572815-.2127548.16377254-.380447.3632455-.502584.59816921-.1218907.23492372-.1829592.50080444-.1829592.79739251 0 .32180305.0499875.59067961.1502088.80712899.099975.21644938.2410728.39570042.4225546.53800277.1817281.14205271.3991615.25938974.6527928.35226075.2538775.09262136.530902.17325937.8310734.24116505.3070662.06790569.5574963.13281554.7515366.1949792.1942864.06166435.3430178.1265742.446194.19447989.1034225.06815534.1738483.14080444.2112773.21794729.0376754.07739251.0563899.16851595.0563899.27361997 0 .24765604-.0923415.42690708-.2770244.53800278-.184683.11134535-.4742659.16701803-.868995.16701803-.3193784 0-.6212735-.0571706-.9061778-.17151179s-.5434604-.30457698-.7749298-.57070735l-.948778.83509015c.2504302.36474341.6013278.65209431 1.0522005.86230236.4506265.21020804.9517329.31556172 1.5025807.31556172.4511189 0 .837722-.049681 1.1600553-.14854369.3223334-.09911234.5902468-.23966713.8032478-.42191401.2125086-.18249653.3691197-.40044383.469341-.65384188.1004676-.25389737.1504551-.53475729.1504551-.84407767"/><path d="m18.7258686 6.65101248h1.3146966v-6.49198335h-1.3146966z"/><path d="m26.7324912 6.65101248v-6.49198335h-1.2967207v2.74493758c0 .09312067.0019699.20746186.0044324.34352289.0032011.13606102.0051711.27511789.0051711.41717059 0 .13606103.0014774.26438281.0046786.38496533.0029549.12083218.0049249.21170596.0049249.27337032-.0443239-.08638003-.1113023-.19897365-.2024125-.33828017-.0903716-.13930652-.1768032-.27037448-.25831-.39420249l-2.3287292-3.43148405h-1.2585529v6.49198335h1.2957358v-2.85653259c0-.09287101-.0014775-.20721221-.0044324-.34302358-.0032012-.13606103-.0051711-.27212205-.0051711-.40793343 0-.14230235-.0014775-.27386962-.0044324-.39445214-.0032012-.12058253-.0046787-.21170597-.0046787-.27337032.0435852.08613037.1108098.1992233.2019201.33828016.0911103.13905687.1768032.27062414.2583099.3942025l2.4139296 3.5428294z"/><path d="m38.3685036 4.68499307c0-.35251041-.0657472-.6431068-.1972415-.87178919-.1314942-.22868238-.3026338-.41717059-.5119412-.56571428-.2095536-.14854369-.4447166-.2643828-.704504-.34801665-.2600336-.08338418-.5215447-.15628294-.784287-.21794729-.2627423-.06166436-.4786983-.11758669-.6478679-.16701803-.1691696-.04918169-.303865-.10185853-.4043326-.15753121-.099975-.05542302-.1704008-.1190846-.2107848-.19023578-.0411227-.07090153-.061561-.15877947-.061561-.26413315 0-.07439667.0160059-.1452982.0472789-.21345354.0315192-.06790568.0847079-.12957004.1598123-.18549237.0748582-.05567268.171632-.10036061.2908141-.13431345.1191821-.03395285.2659435-.05117892.4415154-.05117892.3006639 0 .5715323.0571706.8126051.17151179.2410729.11434119.4676173.28011096.6806184.49631068l.9490242-.90898752c-.3132223-.32130374-.6626425-.57195562-1.0477681-.750957-.3843868-.17975035-.8335358-.26912622-1.3476932-.26912622-.3255345 0-.6306308.04343967-.9157813.1298197-.2844118.08662968-.5338569.21170596-.7463655.37572815-.213001.16377254-.3806931.3632455-.5025839.59816921-.1223833.23492372-.1834518.50080444-.1834518.79739251 0 .32180305.0502338.59067961.1507014.80712899.099975.21644938.2408266.39570042.4225546.53800277.181728.14205271.3991615.25938974.6527928.35226075.2536312.09262136.5306557.17325937.8310733.24116505.3070663.06790569.5577426.13281554.7512904.1949792.1940402.06166435.3425253.1265742.4464403.19447989.1031762.06815534.173602.14080444.2110311.21794729.0376753.07739251.0561436.16851595.0561436.27361997 0 .24765604-.0920953.42690708-.2767782.53800278-.1844368.11134535-.4742659.16701803-.8687487.16701803-.3193785 0-.6212736-.0571706-.9064241-.17151179-.2849042-.11434119-.5432142-.30457698-.7744373-.57070735l-.9492704.83509015c.2506763.36474341.6010815.65209431 1.0524467.86230236.4503802.21020804.9514867.31556172 1.5025806.31556172.4503803 0 .837722-.049681 1.1598091-.14854369.3225796-.09911234.5904931-.23966713.8030016-.42191401.2127548-.18249653.3698584-.40044383.4698335-.65384188.099975-.25389737.1504551-.53475729.1504551-.84407767"/><path d="m44.0175864 4.68499307c0-.35251041-.0659934-.6431068-.1972414-.87178919-.1314943-.22868238-.3023876-.41717059-.5121875-.56571428-.2095536-.14854369-.4447166-.2643828-.7040115-.34801665-.2602799-.08338418-.5220372-.15628294-.7845333-.21794729-.2627423-.06166436-.4786982-.11758669-.6481141-.16701803-.1689233-.04918169-.3036188-.10185853-.4035938-.15753121-.1007138-.05542302-.1711396-.1190846-.2115236-.19023578-.0408765-.07090153-.061561-.15877947-.061561-.26413315 0-.07439667.0162521-.1452982.0475251-.21345354.0315192-.06790568.0844617-.12957004.1595661-.18549237.0751044-.05567268.1723708-.10036061.2910603-.13431345.1191821-.03395285.2659435-.05117892.4415155-.05117892.3004176 0 .5715322.0571706.8123588.17151179.2410729.11434119.4681098.28011096.6813571.49631068l.9485317-.90898752c-.3134685-.32130374-.66215-.57195562-1.0470293-.750957-.3853718-.17975035-.8345208-.26912622-1.348432-.26912622-.3255345 0-.6306308.04343967-.9160275.1298197-.2844118.08662968-.5336107.21170596-.7463655.37572815-.2127548.16377254-.3802007.3632455-.5025839.59816921-.1223833.23492372-.1832055.50080444-.1832055.79739251 0 .32180305.0499875.59067961.1507013.80712899.099975.21644938.2410728.39570042.4223084.53800277.1819743.14205271.3991614.25938974.6527927.35226075.2541238.09262136.530902.17325937.8313197.24116505.3070662.06790569.5574963.13281554.7510441.1949792.1940402.06166435.3430178.1265742.4466865.19447989.1031762.06815534.1738482.14080444.2115236.21794729.0369366.07739251.0558974.16851595.0558974.27361997 0 .24765604-.0923415.42690708-.2770245.53800278-.1844367.11134535-.4742659.16701803-.868995.16701803-.3191321 0-.6215197-.0571706-.9059315-.17151179-.2853968-.11434119-.5434604-.30457698-.7749298-.57070735l-.9490242.83509015c.2504301.36474341.6010815.65209431 1.0522004.86230236.451119.21020804.9514867.31556172 1.502827.31556172.4511189 0 .8374757-.049681 1.1600553-.14854369.3220871-.09911234.5900005-.23966713.8027553-.42191401.2134935-.18249653.3696122-.40044383.4698335-.65384188.1004676-.25389737.1504551-.53475729.1504551-.84407767"/></g></g></svg>