<svg height="40" viewBox="0 0 74 40" width="74" xmlns="http://www.w3.org/2000/svg" xmlns:xlink="http://www.w3.org/1999/xlink"><mask id="a" fill="#fff"><path d="m.01412853.18117647h65.70823857v26.97694113h-65.70823857z" fill="#fff" fill-rule="evenodd"/></mask><g fill="none" fill-rule="evenodd"><path d="m13.5570264 6.14894118c-6.35689448 0-11.52887661 5.16776472-11.52887661 11.52023532 0 6.3522353 5.17198213 11.5204706 11.52887661 11.5204706h48.0541753c6.3564235 0 11.5286411-5.1682353 11.5286411-11.5204706 0-6.3524706-5.1722176-11.52023532-11.5286411-11.52023532z" fill="#fffffe"/><path d="m13.5107685 6c-6.34690985 0-11.5107685 5.1586348-11.5107685 11.4998826 0 6.3410128 5.16385865 11.5001174 11.5107685 11.5001174h47.9786981c6.3464396 0 11.5105334-5.1591046 11.5105334-11.5001174 0-6.3412478-5.1640938-11.4998826-11.5105334-11.4998826zm-.0129355 24c-6.89133289 0-12.497833-5.607967-12.497833-12.5002353s5.60650011-12.4997647 12.497833-12.4997647h48.004334c6.8913329 0 12.497833 5.6074964 12.497833 12.4997647s-5.6065001 12.5002353-12.497833 12.5002353z" fill="#bfc0bf"/><path d="m55.8469989 15.7814118c-.9569721 0-1.73357-.7748236-1.73357-1.7312942 0-.9574117.7765979-1.7324705 1.73357-1.7324705s1.7338055.7750588 1.7338055 1.7324705c0 .9564706-.7768334 1.7312942-1.7338055 1.7312942m0-5.108c-1.8654363 0-3.3781304 1.5117647-3.3781304 3.3767058 0 1.864 1.5126941 3.3745883 3.3781304 3.3745883 1.8666137 0 3.3783659-1.5105883 3.3783659-3.3745883 0-1.8649411-1.5117522-3.3767058-3.3783659-3.3767058" fill="#1a1919"/><path d="m40.3524808 15.7814118c-.9560302 0-1.7323927-.7748236-1.7323927-1.7312942 0-.9574117.7763625-1.7324705 1.7323927-1.7324705.9581495 0 1.7338055.7750588 1.7338055 1.7324705 0 .9564706-.775656 1.7312942-1.7338055 1.7312942m0-5.108c-1.8654363 0-3.3778949 1.5117647-3.3778949 3.3767058 0 1.864 1.5124586 3.3745883 3.3778949 3.3745883 1.8666137 0 3.3795432-1.5105883 3.3795432-3.3745883 0-1.8649411-1.5129295-3.3767058-3.3795432-3.3767058" fill="#1a1919"/><path d="m52.2510538 15.8757647c-.2135762.0621177-.5404161.1232941-.6647471.1232941-.5773858 0-.7031296-.1988235-.7031296-.7510588v-3.1188235h1.3812988v-1.3032941h-1.3812988v-1.84235299h-1.5541378l-.3266044 1.84235299h-1.082716v.0009411h-.0880678c-.8853876.0042353-1.5531959.544-1.9815257 1.3894118l-.540416-1.3903529h-1.1145052v6.477647h1.9047607v-2.8183529c0-1.4204706.8399408-2.328 1.8355309-2.356h1.0419787v3.2202353c0 1.5157647.7775398 2.0795294 2.0436912 2.0795294.6534443 0 1.1543005-.1378824 1.4547671-.2374118z" fill="#1a1919"/><path d="m61.5332594 12.8750588v4.4282353h-1.8517787v-6.477647h1.1239241l.3765252.9894117" fill="#1a1919"/><path d="m61.1736884 11.8214118c.5630217-.6527059 1.3332618-1.1470589 2.2356036-1.1470589 1.542835 0 2.1774412 1.2289412 2.1774412 2.3687059v4.2604706h-1.9068799v-4.205647c0-.5552942-.4624737-.8567059-.9642719-.8567059-.5340582 0-.8773814.305647-1.1790254.632" fill="#1a1919"/><path d="m29.54463 8.48094118h2.1225754l2.9147148 5.54729412v-5.54729412h1.7580595v8.82352942h-1.9231278l-3.113456-6.0995294v6.0995294h-1.7587659z" fill="#1a1919"/><path d="m71.2120055 5.168v.316h-.4624737v1.55411765h-.3609838v-1.55411765h-.4539966v-.316z" fill="#9e9f9e"/><path d="m71.4710285 7.03835294v-1.87035294h.488376l.3244852 1.22470588.329901-1.22470588h.4935565v1.87035294h-.2976409v-1.46305882h-.0084771l-.3781736 1.46305882h-.2644389l-.3817056-1.46305882h-.0082417v1.46305882z" fill="#9e9f9e"/><path d="m29.0148103 25.1235294.4405745-.6847059c.3579226.2642353.8950421.5096471 1.5501347.5096471.6367255 0 1.029734-.2882353 1.029734-.7887059 0-.5757647-.4966177-.7282353-1.3127755-1.012-.7318576-.2569412-1.4514704-.6258823-1.4514704-1.6618823 0-.9708236.766237-1.4995295 1.7969129-1.4995295.6852335 0 1.1900928.1348236 1.5967588.3741177l-.3525067.7284706c-.3412039-.1771765-.7488118-.2974118-1.2277688-.2974118-.5743246 0-.9185897.2164706-.9185897.6715294 0 .5345883.3991309.670353 1.1498265.9169412.7829558.2536471 1.6445604.6155294 1.6445604 1.7632941 0 .9710588-.6946525 1.6112941-1.9410239 1.6112941-.9249475 0-1.6042941-.3190588-2.0043668-.6310588" fill="#9e9f9e"/><path d="m34.6316055 20.0745882h3.3371576v.7750589h-2.3874852v1.5303529h1.8854516v.7583529h-1.8854516v1.7687059h2.5325381v.7738824h-3.4822105z" fill="#9e9f9e"/><path d="m39.4722737 22.8825882c0-1.636.7838977-2.8948235 2.3486318-2.8948235.7007749 0 1.2546131.2216471 1.6445604.6755294l-.5538382.6402353c-.3348461-.3275294-.6188294-.488-1.0751808-.488-.9185896 0-1.3426808.7510588-1.3426808 2.1385882 0 1.302353.4476387 1.962353 1.3509224 1.962353.5017982 0 .8543049-.2632941 1.1634841-.5905882l.5590186.6225882c-.406666.4797647-.9157639.8061176-1.7307443.8061176-1.6134776 0-2.3641732-1.2289411-2.3641732-2.872" fill="#9e9f9e"/><path d="m45.1140293 23.5352941v-3.4607059h.9569721v3.6150589c0 .7708235.1909706 1.2752941 1.0050091 1.2752941.8067388 0 1.0066574-.5044706 1.0066574-1.2752941v-3.6150589h.9663911v3.4607059c0 1.3891765-.5350001 2.2192941-1.9803483 2.2192941-1.4215651 0-1.9546814-.8301176-1.9546814-2.2192941" fill="#9e9f9e"/><path d="m52.7488488 22.5717647c.7113713 0 1.0773001-.2310588 1.0773001-.8785882 0-.6225883-.3732286-.8444706-1.0214924-.8444706h-.9018709v1.7230588zm2.1557775 3.1103529h-1.0379757l-1.0773-2.3778823h-.886565v2.3778823h-.9499078v-5.6072941h1.8303504c1.1331078 0 2.0177889.4061177 2.0177889 1.6348236 0 .8383529-.5029755 1.2590588-1.062936 1.4590588z" fill="#9e9f9e"/><path d="m56.5291712 20.0745882h3.3369222v.7750589h-2.3881917v1.5303529h1.8830969v.7583529h-1.8830969v1.7687059h2.5311253v.7738824h-3.4798558z" fill="#9e9f9e"/><g transform="translate(0 4)"><path d="m62.959063 20.9070588c1.3099498 0 1.757824-.604 1.757824-2.0494117 0-1.2682353-.3515648-2.0091765-1.6396153-2.0091765h-.5100398v4.0585882zm-1.345742-4.8324706h1.4008433c1.829173 0 2.7082028.9894118 2.7082028 2.7830589 0 1.8275294-.8945711 2.8242353-2.6596949 2.8242353h-1.4493512z" fill="#9e9f9e" mask="url(#a)"/><path d="m13.4995703 4.27023515c-2.4637793 0-4.78132835.96034958-6.52643669 2.70348533-1.74298906 1.74407773-2.70302234 4.06182182-2.70302234 6.52580852 0 2.4635157.96003328 4.7812598 2.70302234 6.526515 1.74393096 1.7419583 4.06148009 2.7023079 6.52643669 2.7032499 2.4635439-.000942 4.781093-.9612916 6.5262013-2.7044273 1.7408698-1.7440778 2.7011386-4.0618219 2.7020805-6.5253376-.0009419-2.4639867-.9612107-4.78173079-2.7030224-6.52675051-1.7451083-1.74219376-4.0626574-2.70254334-6.5252594-2.70254334m0 22.72976485c-7.44290702 0-13.4995703-6.057173-13.4995703-13.500471 0-7.44353347 6.05666328-13.499529 13.4995703-13.499529 7.4419652 0 13.4972156 6.05599553 13.498393 13.499529-.0011774 7.443298-6.0564278 13.500471-13.498393 13.500471" fill="#f6bc25" mask="url(#a)"/></g><path d="m28.2038329 3.15552941h1.0523397v-1.0517647h-1.0523397z" fill="#f6bc25"/><path d="m28.2038329 1.06164706h1.0523397v-1.05388235h-1.0523397z" fill="#f6bc25"/><path d="m25.2424941 4.17482353h.9828744v-1.02682353h-.9828744z" fill="#f6bc25"/><g fill="#1a1919"><path d="m23.293935 6.14658824h.9913515v-.98211765h-.9913515z"/><path d="m26.225133 5.16447059h1.1022604v-.98941177h-1.1022604z"/><path d="m22.306822 5.16447059h.987113v-.94094118h-.987113z"/><path d="m25.2424941 6.14658824h.9828744v-.98211765h-.9828744z"/><path d="m27.1625606 2.10376471h1.0412723v-1.04235295h-1.0412723z"/><path d="m25.2424941 3.148h1.9200665v-1.04423529h-1.9200665z"/><path d="m24.2852865 5.16447059h.9569721v-2.0162353h-.9569721z"/><path d="m24.285522 6.14658824v.98964705h-.9913516v-.98964705h-1.6445603v.71294117h-.8813845v.87952941h.9840518v.9802353h-.9840518v-.9802353h-1.0462173v1.53764706h-.9892322v.98117652h-.65627v.9854117h-.7219677c-.8107418 1.2049412-2.8431302 4.9609412-3.4567791 6.4901177-2.2148818-3.0792942-3.93408786-4.2997647-5.288307-4.7411765-.7299738-.2197647-1.61018092.5750588-.39724703 1.8256471 2.78614513 3.061647 3.66352663 5.5967058 4.51053163 7.6190588.4481098 1.0663529 2.4564796 1.2322353 2.859849.1461176.8576015-2.2948235 2.1009117-4.8734117 3.5733395-6.9912941v-1.0971765h.786017v-.989647h.8262832v-1.1468236h.987113v-1.105647h-.9984158v-1.0049412h.9984158v1.0049412h.976752l-.0018838-.9945882h.7827203v-1.20070593h.8813845v-.82588235h.8481825v-2.08470588z"/></g><g fill="#9e9f9e"><path d="m7.82602558 37.3992941v-.012c0-.6221176-.421501-1.0312941-.92235722-1.0312941s-.9407243.4150588-.9407243 1.0312941v.012c0 .6225883.43986808 1.0322353.9407243 1.0322353.50650763 0 .92235722-.3971765.92235722-1.0322353m-2.58363631-1.6171765h.73915735v.5376471c.23806565-.336.5738536-.6047059 1.09331237-.6047059.76341131 0 1.50233318.6047059 1.50233318 1.6722353v.012c0 1.0684706-.73303498 1.6722353-1.50233318 1.6722353-.53123255 0-.86725597-.2682353-1.09331237-.5675294v1.4776471h-.73915735z"/><path d="m11.8794995 37.4117647v-.0124706c0-.5675294-.4092563-1.0371765-.9894678-1.0371765-.5929271 0-.97133606.4637648-.97133606 1.0251765v.012c0 .5616471.40925626 1.0381177.98334536 1.0381177.5985785 0 .9774585-.4701177.9774585-1.0256471m-2.70019668 0v-.0124706c0-.9209412.73327046-1.6842353 1.72273818-1.6842353.9894677 0 1.7163803.7508236 1.7163803 1.6722353v.012c0 .916-.7327995 1.6788235-1.7283896 1.6788235-.98358078 0-1.71072888-.7503529-1.71072888-1.6663529"/><path d="m12.9749311 35.7821176h.7577599l.6470865 2.2101177.7146679-2.2221177h.6291903l.7205548 2.2221177.6598021-2.2101177h.7389219l-1.0563428 3.2472942h-.6600376l-.7203193-2.2035294-.7273835 2.2035294h-.6590957z"/><path d="m20.610928 37.1677647c-.0487434-.476-.3296656-.848-.8185125-.848-.4521128 0-.7692982.348-.8366442.848zm-2.3884272.2381177v-.0124706c0-.9214118.6539153-1.678353 1.576037-1.678353 1.0262019 0 1.5454252.8056471 1.5454252 1.7338824 0 .0668235-.0061223.1338823-.0120092.2072941h-2.3700601c.0793552.5244706.4516418.8176471.9282441.8176471.3605128 0 .617181-.1338824.8733783-.3842353l.4335103.3842353c-.3051762.3661176-.7266772.6042352-1.3188979.6042352-.9346019 0-1.6556277-.6778823-1.6556277-1.6722352z"/><path d="m22.1137322 35.7821176h.7391573v.7261177c.2013315-.4816471.5738536-.8110588 1.1418203-.7872941v.7814117h-.0423856c-.6477928 0-1.0994347.4214118-1.0994347 1.276v1.2265883h-.7391573z"/><path d="m26.8121732 37.1677647c-.0487434-.476-.3296656-.848-.8185125-.848-.4521128 0-.7692982.348-.8361733.848zm-2.3884272.2381177v-.0124706c0-.9214118.6541507-1.678353 1.5762725-1.678353 1.0262019 0 1.5451897.8056471 1.5451897 1.7338824 0 .0668235-.0061224.1338823-.0117738.2072941h-2.3702955c.0795906.5244706.4521128.8176471.9282441.8176471.3607483 0 .6174165-.1338824.8736138-.3842353l.4337457.3842353c-.3056471.3661176-.7269126.6042352-1.3191333.6042352-.934602 0-1.6558632-.6778823-1.6558632-1.6722352z"/><path d="m30.7530898 37.3992941v-.012c0-.6221176-.439868-1.0312941-.9346019-1.0312941-.5069786 0-.9282441.3908235-.9282441 1.0312941v.012c0 .6225883.4273879 1.0322353.9282441 1.0322353.4947339 0 .9346019-.4155294.9346019-1.0322353m-2.6081257 0v-.012c0-1.0675294.7266771-1.6722353 1.4964463-1.6722353.5309971 0 .8670205.2687059 1.0991992.5675294v-1.7334117h.7396283v4.4557647h-.7396283v-.5371765c-.2380656.3355294-.574089.6037647-1.0991992.6037647-.7575244 0-1.4964463-.6037647-1.4964463-1.6722353"/><path d="m36.8158755 37.3992941v-.012c0-.6221176-.4217365-1.0312941-.9223572-1.0312941-.5010917 0-.9407243.4150588-.9407243 1.0312941v.012c0 .6225883.4396326 1.0322353.9407243 1.0322353.5067431 0 .9223572-.3971765.9223572-1.0322353m-1.8447145 1.1047059v.5009412h-.7391573v-4.4557647h.7391573v1.7705882c.2380657-.336.5740891-.6047059 1.0933124-.6047059.7634113 0 1.5025687.6047059 1.5025687 1.6722353v.012c0 1.0684706-.7332705 1.6722353-1.5025687 1.6722353-.5312325 0-.867256-.2682353-1.0933124-.5675294"/><path d="m38.0704885 39.8042353.2498394-.5491765c.134692.0736471.2809222.122353.4337458.122353.2081602 0 .3360234-.092.4579997-.3722353l-1.3433873-3.2230589h.7874298l.9167058 2.3924706.8368796-2.3924706h.7692982l-1.2826346 3.314353c-.2561972.6590588-.5434772.9035294-1.062936.9035294-.3108276 0-.536884-.0734118-.7629404-.1957647"/></g><path d="m43.3632695 34.7324706h.8302864l1.2892279 3.2835294 1.2821636-3.2835294h.8126257l-1.777133 4.3028235h-.6593311z" fill="#8d0b3d"/><path d="m50.1171755 37.1677647c-.0487434-.476-.3296656-.848-.8182771-.848-.4521128 0-.7692982.348-.8366441.848zm-2.3881917.2381177v-.0124706c0-.9214118.6536798-1.678353 1.5762725-1.678353 1.0262019 0 1.5449542.8056471 1.5449542 1.7338824 0 .0668235-.0061224.1338823-.0120092.2072941h-2.3698247c.0795907.5244706.4521128.8176471.9280087.8176471.3609838 0 .617181-.1338824.8733783-.3842353l.4342167.3842353c-.3058826.3661176-.7269126.6042352-1.3196043.6042352-.9346019 0-1.6553922-.6778823-1.6553922-1.6722352z" fill="#8d0b3d"/><path d="m51.6199797 35.7821176h.7391573v.7261177c.201567-.4816471.5743246-.8110588 1.1425267-.7872941v.7814117h-.0428565c-.6475574 0-1.0996702.4214118-1.0996702 1.276v1.2265883h-.7391573z" fill="#8d0b3d"/><path d="m54.1360345 39.0049412h.7393928v-3.2228236h-.7393928zm-.0303763-3.7174118h.7935522v-.7011765h-.7935522z" fill="#8d0b3d"/><path d="m55.6418998 38.3828235.4521128-.537647c.4094918.3543529.8185126.5550588 1.3497451.5550588.464593 0 .7577599-.2131765.7577599-.5367059v-.0124706c0-.3047059-.1711906-.4701176-.9649782-.6524706-.910348-.2197647-1.4234489-.488-1.4234489-1.2757647v-.0124706c0-.7324705.6103522-1.2388235 1.4597121-1.2388235.623068 0 1.1178018.1891765 1.5513121.5371765l-.402663.5670588c-.3850023-.2868235-.7702401-.4392941-1.1611293-.4392941-.4396326 0-.6955944.2261176-.6955944.5068235v.0124706c0 .3294118.1947382.476 1.0141926.6712941.9035192.2197647 1.3737636.5428236 1.3737636 1.2515294v.0112942c0 .8002352-.6294258 1.2757647-1.527529 1.2757647-.6532088 0-1.269919-.2256471-1.7832554-.6828236" fill="#8d0b3d"/><path d="m59.7982765 39.0049412h.7386864v-3.2228236h-.7386864zm-.0308473-3.7174118h.7942586v-.7011765h-.7942586z" fill="#8d0b3d"/><path d="m63.9160351 37.2407059v-.0124706c0-.5303529-.4332747-.8910588-.9466112-.8910588-.5131009 0-.9162348.3543529-.9162348.885647v.012c0 .5310589.4092563.8910589.9162348.8910589.5133365 0 .9466112-.3658824.9466112-.8851765m-2.4489443 2.3684706.2747998-.5550589c.3421458.2131765.708781.3409412 1.1484136.3409412.6598021 0 1.0196086-.3409412 1.0196086-.9884706v-.2498823c-.268442.3472941-.6044654.5917647-1.1354625.5917647-.7577599 0-1.46607-.5616471-1.46607-1.5077647v-.0124706c0-.9517647.7144325-1.5131765 1.46607-1.5131765.5434773 0 .8795007.250353 1.1298111.5491765v-.4821177h.7386864v2.5632942c0 .5432941-.1398724.9458823-.4087854 1.2145882-.2931669.2929412-.7450442.4338824-1.3257266.4338824-.5309971 0-1.0262019-.1345883-1.441345-.3847059" fill="#8d0b3d"/><path d="m65.5930911 35.7821176h.7386864v.5004706c.2081602-.3047058.5065076-.5675294 1.0078348-.5675294.7269126 0 1.1481781.4884706 1.1481781 1.2388236v2.0510588h-.7391573v-1.8312941c0-.5004706-.2503104-.7872942-.689943-.7872942-.4280943 0-.7269126.2992942-.7269126.7997647v1.8188236h-.7386864z" fill="#8d0b3d"/></g></svg>