<?xml version="1.0" encoding="UTF-8"?>
<svg width="94px" height="40px" viewBox="0 0 94 40" version="1.1" xmlns="http://www.w3.org/2000/svg" xmlns:xlink="http://www.w3.org/1999/xlink">
    <title>Logo/McAfee</title>
    <g id="Logo/McAfee" stroke="none" stroke-width="1" fill="none" fill-rule="evenodd">
        <g id="Group" transform="translate(0.500000, 0.500000)" fill-rule="nonzero">
            <g id="trustedsite">
                <path d="M1.56302521,0 L91.4369748,0 C92.3002098,0 93,0.699790223 93,1.56302521 L93,36.7310924 C93,37.5943274 92.3002098,38.2941176 91.4369748,38.2941176 L1.56302521,38.2941176 C0.699790223,38.2941176 0,37.5943274 0,36.7310924 L0,1.56302521 C0,0.699790223 0.699790223,0 1.56302521,0 Z" id="background" stroke-opacity="0.1" stroke="#000000" fill="#FFFFFF"></path>
                <g id="Logo" transform="translate(5.079832, 5.861345)">
                    <path d="M81.9264837,4.76121846 L81.9264837,5.29003077 L81.6134692,5.29003077 L81.6134692,3.97601231 C81.7370279,3.95197539 81.9100087,3.93595077 82.1324139,3.93595077 C82.3877669,3.93595077 82.5030877,3.97601231 82.6019342,4.03209846 C82.6760692,4.08818462 82.73373,4.19234462 82.73373,4.32054154 C82.73373,4.46476308 82.6184092,4.57693539 82.4536648,4.62500923 L82.4536648,4.64103385 C82.5854599,4.6891077 82.6595949,4.78525539 82.7007806,4.96152616 C82.7419671,5.16183385 82.7666786,5.24195693 82.7996271,5.29003077 L82.4619019,5.29003077 C82.4207162,5.24195693 82.396004,5.12177231 82.3548183,4.96953846 C82.3301069,4.82531693 82.2477347,4.76121846 82.0747531,4.76121846 L81.9264837,4.76121846 Z M81.9347209,4.1683077 L81.9347209,4.54488616 L82.0829902,4.54488616 C82.2559718,4.54488616 82.396004,4.4888 82.396004,4.35259077 C82.396004,4.23240616 82.3053947,4.15228308 82.1077017,4.15228308 C82.0253302,4.15228308 81.9676695,4.16029539 81.9347209,4.1683077 Z M82.140651,3.28695385 C82.9231858,3.28695385 83.524502,3.87185231 83.524502,4.60097231 C83.524502,5.34611693 82.9231858,5.93101539 82.140651,5.93101539 C81.3663533,5.93101539 80.7485629,5.34611693 80.7485629,4.60097231 C80.7485629,3.87185231 81.3663533,3.28695385 82.140651,3.28695385 Z M82.140651,3.55136 C81.5393349,3.55136 81.0945253,4.02408616 81.0945253,4.60097231 C81.0945253,5.18587077 81.5393349,5.65058462 82.1488882,5.65058462 C82.7419671,5.65058462 83.1785388,5.18587077 83.1785388,4.60898462 C83.1785388,4.02408616 82.7419671,3.55136 82.140651,3.55136 Z" id="®" fill="#80C600"></path>
                    <path d="M78.8545914,7.26598583 C78.8545914,6.77909757 78.6415495,5.9634587 77.7085762,5.9634587 C76.8556943,5.9634587 76.5089885,6.72656073 76.4555944,7.26598583 L78.8545914,7.26598583 Z M76.469121,8.63440361 C76.5356856,9.46304494 77.3620484,9.85786191 78.3083703,9.85786191 C79.0010695,9.85786191 79.5609959,9.76579066 80.1073952,9.59465057 L80.3738323,10.9498903 C79.7074741,11.2129259 78.8946376,11.3445316 78.0148804,11.3445316 C75.8027625,11.3445316 74.5366101,10.0815389 74.5366101,8.06862225 C74.5366101,6.43699312 75.562845,4.6345753 77.828357,4.6345753 C79.9340424,4.6345753 80.7337087,6.25285061 80.7337087,7.84476961 C80.7337087,8.18704977 80.6938406,8.48944412 80.6671434,8.63440361 L76.469121,8.63440361 Z" id="Fill-19" fill="#80C600"></path>
                    <path d="M72.7773633,2.93735417 L72.7773633,4.7793064 L74.230039,4.7793064 L74.230039,6.2529736 L72.7773633,6.2529736 L72.7773633,8.58163838 C72.7773633,9.35791852 72.9640647,9.71320111 73.577029,9.71320111 C73.8302951,9.71320111 74.0301671,9.68684483 74.1766449,9.66048855 L74.1899934,11.1735145 C73.9233788,11.2787639 73.4437217,11.3446545 72.8706249,11.3446545 C72.217615,11.3446545 71.6712153,11.1208019 71.3513846,10.7920514 C70.9783377,10.4104125 70.7916363,9.79209426 70.7916363,8.88420841 L70.7916363,6.2529736 L69.9254059,6.2529736 L69.9254059,4.7793064 L70.7916363,4.7793064 L70.7916363,3.38470801 L72.7773633,2.93735417 Z" id="Fill-18" fill="#80C600"></path>
                    <path d="M67.0466269,11.2130138 L69.0723994,11.2130138 L69.0723994,4.77927126 L67.0466269,4.77927126 L67.0466269,11.2130138 Z M69.1389641,2.99003158 C69.1389641,3.54263482 68.7127011,3.98981295 68.0463426,3.98981295 C67.4065032,3.98981295 66.9800622,3.54263482 66.9934108,2.99003158 C66.9800622,2.41107206 67.4065032,1.97689636 68.0596912,1.97689636 C68.7127011,1.97689636 69.1257935,2.41107206 69.1389641,2.99003158 L69.1389641,2.99003158 Z" id="Fill-16" fill="#80C600"></path>
                    <path d="M60.3164774,9.14738458 C60.8626991,9.42359841 61.7024105,9.69998784 62.5684629,9.69998784 C63.501614,9.69998784 63.9946196,9.31852466 63.9946196,8.7395652 C63.9946196,8.18696193 63.5683567,7.87103804 62.4885498,7.4895749 C60.9960064,6.97650608 60.0231658,6.1606915 60.0231658,4.87151822 C60.0231658,3.35849231 61.3024886,2.20057328 63.4215229,2.20057328 C64.4345871,2.20057328 65.1806808,2.41107206 65.71391,2.64792713 L65.260594,4.26620243 C64.9008957,4.09523806 64.2612342,3.84520486 63.3816553,3.84520486 C62.5018983,3.84520486 62.0754574,4.23984616 62.0754574,4.70037814 C62.0754574,5.26615951 62.5819894,5.516017 63.7413535,5.95036842 C65.3273366,6.52915222 66.0736082,7.3449668 66.0736082,8.59478139 C66.0736082,10.081451 64.9142441,11.3446195 62.4486821,11.3446195 C61.4226254,11.3446195 60.4095612,11.0814081 59.903385,10.8051943 L60.3164774,9.14738458 Z" id="Fill-14" fill="#80C600"></path>
                    <path d="M56.6110508,7.50277061 C56.6110508,7.39752122 56.5977023,7.25273741 56.5843538,7.14766372 C56.464395,6.60806291 56.0246056,6.16070907 55.3982927,6.16070907 C54.4788461,6.16070907 53.9988331,6.97652364 53.9988331,7.98965884 C53.9988331,9.08168719 54.5454107,9.7657204 55.3849441,9.7657204 C55.9713894,9.7657204 56.437698,9.37107912 56.5576567,8.80529775 C56.5977023,8.66051395 56.6110508,8.51590582 56.6110508,8.34476574 L56.6110508,7.50277061 Z M58.6366454,1.87166454 L58.6366454,9.29218597 C58.6366454,10.0157536 58.6633424,10.7788556 58.6900395,11.2130313 L56.890836,11.2130313 L56.7975743,10.2656111 L56.7708772,10.2656111 C56.3577848,10.9893544 55.5714675,11.3578151 54.7317562,11.3578151 C53.1859967,11.3578151 51.9465415,10.055288 51.9465415,8.05537381 C51.9333709,5.8844953 53.3059555,4.63450502 54.8652414,4.63450502 C55.6649072,4.63450502 56.2912201,4.91089449 56.5843538,5.35824834 L56.6110508,5.35824834 L56.6110508,1.87166454 L58.6366454,1.87166454 Z" id="Fill-12" fill="#323835"></path>
                    <path d="M49.5740454,7.26598583 C49.5740454,6.77909757 49.360825,5.9634587 48.4280298,5.9634587 C47.5751479,5.9634587 47.2284422,6.72656073 47.1750481,7.26598583 L49.5740454,7.26598583 Z M47.1885746,8.63440361 C47.2551392,9.46304494 48.0813241,9.85786191 49.0276457,9.85786191 C49.7207012,9.85786191 50.2804495,9.76579066 50.8268492,9.59465057 L51.0932858,10.9498903 C50.4269273,11.2129259 49.614091,11.3445316 48.7343341,11.3445316 C46.5222161,11.3445316 45.2560638,10.0815389 45.2560638,8.06862225 C45.2560638,6.43699312 46.2822986,4.6345753 48.5478106,4.6345753 C50.6534963,4.6345753 51.4531621,6.25285061 51.4531621,7.84476961 C51.4531621,8.18704977 51.4131165,8.48944412 51.3865975,8.63440361 L47.1885746,8.63440361 Z" id="Fill-10" fill="#323835"></path>
                    <path d="M43.5234071,2.93735417 L43.5234071,4.7793064 L44.9760829,4.7793064 L44.9760829,6.2529736 L43.5234071,6.2529736 L43.5234071,8.58163838 C43.5234071,9.35791852 43.7101086,9.71320111 44.323073,9.71320111 C44.576339,9.71320111 44.7762109,9.68684483 44.9226888,9.66048855 L44.9360373,11.1735145 C44.6694227,11.2787639 44.1897657,11.3446545 43.6166689,11.3446545 C42.9636589,11.3446545 42.4172592,11.1208019 42.0974285,10.7920514 C41.7243816,10.4104125 41.5378582,9.79209426 41.5378582,8.88420841 L41.5378582,6.2529736 L40.6716278,6.2529736 L40.6716278,4.7793064 L41.5378582,4.7793064 L41.5378582,3.38470801 L43.5234071,2.93735417 Z" id="Fill-8" fill="#323835"></path>
                    <path d="M35.646904,9.4631152 C36.0201288,9.68679216 36.7930975,9.95000349 37.3927133,9.95000349 C38.0058557,9.95000349 38.2591217,9.73932895 38.2591217,9.41057841 C38.2591217,9.0816521 38.0592498,8.92369011 37.2996296,8.67383264 C35.9535641,8.22647881 35.4336835,7.50273546 35.447032,6.73963344 C35.447032,5.54253142 36.4866153,4.63464559 38.0991174,4.63464559 C38.8587376,4.63464559 39.5384446,4.80560996 39.9381885,5.00310632 L39.5783122,6.38452656 C39.2851786,6.22656462 38.7254303,6.01606583 38.1656821,6.01606583 C37.6726765,6.01606583 37.3927133,6.21338648 37.3927133,6.5423128 C37.3927133,6.84505854 37.6459794,7.00284478 38.4456452,7.27905855 C39.6851004,7.70023182 40.2048031,8.31855006 40.2181517,9.2657946 C40.2181517,10.4630723 39.2584815,11.3446019 37.3927133,11.3446019 C36.5398315,11.3446019 35.7802113,11.1602836 35.2872056,10.897248 L35.646904,9.4631152 Z" id="Fill-6" fill="#323835"></path>
                    <path d="M34.5272295,9.14738458 C34.5272295,9.98937977 34.5537485,10.6737643 34.5806236,11.2130138 L32.8214657,11.2130138 L32.728026,10.3053037 L32.6881584,10.3053037 C32.4348923,10.6999449 31.82175,11.3577976 30.6490373,11.3577976 C29.3296689,11.3577976 28.3568283,10.541983 28.3568283,8.5554227 L28.3568283,4.77927126 L30.3959493,4.77927126 L30.3959493,8.23967449 C30.3959493,9.17356517 30.7024314,9.73934654 31.4088355,9.73934654 C31.9684058,9.73934654 32.2882365,9.35788343 32.4215438,9.04213523 C32.4749379,8.9237077 32.4881085,8.76574571 32.4881085,8.60795949 L32.4881085,4.77927126 L34.5272295,4.77927126 L34.5272295,9.14738458 Z" id="Fill-4" fill="#323835"></path>
                    <path d="M23.492269,6.89748996 C23.492269,5.95024543 23.4657498,5.3319272 23.4390528,4.77932397 L25.1848622,4.77932397 L25.2514269,5.96342357 L25.304821,5.96342357 C25.6380002,5.02935717 26.437488,4.63454016 27.0638009,4.63454016 C27.2505023,4.63454016 27.343764,4.63454016 27.4904199,4.66089643 L27.4904199,6.54238308 C27.343764,6.5160268 27.1705891,6.48967053 26.9440201,6.48967053 C26.1977485,6.48967053 25.6912163,6.88448753 25.557909,7.50280575 C25.53139,7.6342357 25.5178635,7.79219765 25.5178635,7.95015963 L25.5178635,11.2130665 L23.492269,11.2130665 L23.492269,6.89748996 Z" id="Fill-2" fill="#323835"></path>
                    <polygon id="Fill-1" fill="#323835" points="19.0809189 4.02936494 16.668573 4.02936494 16.668573 2.34537466 23.5720753 2.34537466 23.5720753 4.02936494 21.1198619 4.02936494 21.1198619 11.2130313 19.0809189 11.2130313"></polygon>
                    <path d="M10.1072141,13.3538462 L0,13.3538462 L0,3.52271962 C0,1.57714616 1.62143716,0 3.62146545,0 L13.7286795,0 L13.7286795,9.83112652 C13.7286795,11.7767 12.1072424,13.3538462 10.1072141,13.3538462" id="Fill-20" fill="#80C600"></path>
                    <path d="M10.9206793,2.74071878 C10.8087297,2.63002243 10.6252319,2.63002243 10.5131043,2.74071878 L5.41895034,7.76984753 C5.30682271,7.88054389 5.12350294,7.88054389 5.01155329,7.76984753 L3.15681992,5.93896494 C3.04487027,5.82826858 2.86137251,5.82826858 2.74924488,5.93896494 L1.52669776,7.14590664 C1.41474811,7.256603 1.41474811,7.43758275 1.52669776,7.54827911 L5.01155329,10.9884759 C5.12350294,11.0989965 5.30682271,11.0989965 5.41895034,10.9884759 L12.1434044,4.35003295 C12.2553541,4.2393366 12.2553541,4.05835684 12.1434044,3.94766048 L10.9206793,2.74071878 Z" id="Fill-21" fill="#FEFEFE"></path>
                </g>
                <path d="M0.390756303,24.6176471 L92.6092437,24.6176471 L92.6092437,37.1218487 C92.6092437,37.5534662 92.2593488,37.9033613 91.8277311,37.9033613 L1.17226891,37.9033613 C0.740651414,37.9033613 0.390756303,37.5534662 0.390756303,37.1218487 L0.390756303,24.6176471 Z" id="Rectangle" fill="#F2F3F3"></path>
                <path d="M8.01612156,29.1189765 C7.49205781,29.1189765 7.07993612,29.3046857 6.77974423,29.6761095 C6.47955234,30.0475333 6.32945865,30.5601415 6.32945865,31.2139493 C6.32945865,31.898285 6.47382842,32.4159811 6.76257232,32.7670529 C7.05131621,33.1181248 7.46916183,33.2936581 8.01612156,33.2936581 C8.25271348,33.2936581 8.48167002,33.2701264 8.70299791,33.2230625 C8.9243258,33.1759985 9.15455425,33.1155794 9.39369023,33.0418035 L9.39369023,33.8240792 C8.95612234,33.9894392 8.46004995,34.0721179 7.9054582,34.0721179 C7.08883449,34.0721179 6.46174812,33.8247177 6.02418029,33.3299099 C5.58661245,32.8351021 5.36783181,32.127245 5.36783181,31.2063173 C5.36783181,30.6262855 5.47404218,30.1187653 5.6864661,29.6837415 C5.89889002,29.2487177 6.2060733,28.9154587 6.60802515,28.6839548 C7.009977,28.4524509 7.48188173,28.3367007 8.02375358,28.3367007 C8.59360936,28.3367007 9.12020927,28.4562668 9.60356904,28.6954027 L9.27539486,29.4547827 C9.08713886,29.3657428 8.88807393,29.2875159 8.67819403,29.2201 C8.46831413,29.152684 8.24762552,29.1189765 8.01612156,29.1189765 Z M14.6659085,33.9957983 L11.5100935,33.9957983 L11.5100935,28.4168362 L14.6659085,28.4168362 L14.6659085,29.1876641 L12.4221125,29.1876641 L12.4221125,30.706424 L14.5247173,30.706424 L14.5247173,31.4696199 L12.4221125,31.4696199 L12.4221125,33.2211545 L14.6659085,33.2211545 L14.6659085,33.9957983 Z M17.6981469,31.0117023 L18.3315995,31.0117023 C18.7564473,31.0117023 19.0642666,30.9328396 19.2550665,30.7751116 C19.4458664,30.6173836 19.541265,30.3833393 19.541265,30.0729714 C19.541265,29.7575155 19.4382346,29.531103 19.2321706,29.393727 C19.0261067,29.2563511 18.7157435,29.1876641 18.3010717,29.1876641 L17.6981469,29.1876641 L17.6981469,31.0117023 Z M17.6981469,31.7672663 L17.6981469,33.9957983 L16.7861278,33.9957983 L16.7861278,28.4168362 L18.3621273,28.4168362 C19.082079,28.4168362 19.6150388,28.5516662 19.9610227,28.8213301 C20.3070066,29.090994 20.4799959,29.4980278 20.4799959,30.0424435 C20.4799959,30.7369553 20.1187535,31.2317557 19.3962577,31.5268596 L20.9722573,33.9957983 L19.9343109,33.9957983 L18.598718,31.7672663 L17.6981469,31.7672663 Z M24.6226843,33.9957983 L23.7106652,33.9957983 L23.7106652,29.1991121 L22.0697941,29.1991121 L22.0697941,28.4168362 L26.2635555,28.4168362 L26.2635555,29.1991121 L24.6226843,29.1991121 L24.6226843,33.9957983 Z M28.0327047,33.9957983 L28.0327047,28.4168362 L28.9447237,28.4168362 L28.9447237,33.9957983 L28.0327047,33.9957983 Z M32.2364487,33.9957983 L31.3320615,33.9957983 L31.3320615,28.4168362 L34.4802446,28.4168362 L34.4802446,29.1876641 L32.2364487,29.1876641 L32.2364487,30.9315668 L34.3390534,30.9315668 L34.3390534,31.7062106 L32.2364487,31.7062106 L32.2364487,33.9957983 Z M36.4058489,33.9957983 L36.4058489,28.4168362 L37.317868,28.4168362 L37.317868,33.9957983 L36.4058489,33.9957983 Z M42.8610209,33.9957983 L39.7052059,33.9957983 L39.7052059,28.4168362 L42.8610209,28.4168362 L42.8610209,29.1876641 L40.617225,29.1876641 L40.617225,30.706424 L42.7198297,30.706424 L42.7198297,31.4696199 L40.617225,31.4696199 L40.617225,33.2211545 L42.8610209,33.2211545 L42.8610209,33.9957983 Z M49.5184398,31.1528936 C49.5184398,32.0738212 49.2627717,32.7778624 48.7514279,33.2650382 C48.2400841,33.752214 47.5036074,33.9957983 46.5419757,33.9957983 L44.9812401,33.9957983 L44.9812401,28.4168362 L46.7060629,28.4168362 C47.5939186,28.4168362 48.284604,28.6559686 48.7781398,29.1342404 C49.2716756,29.6125122 49.5184398,30.2853899 49.5184398,31.1528936 Z M48.5568129,31.1834214 C48.5568129,29.8478219 47.9322706,29.1800321 46.683167,29.1800321 L45.8932592,29.1800321 L45.8932592,33.2287864 L46.5419757,33.2287864 C47.8852073,33.2287864 48.5568129,32.5470049 48.5568129,31.1834214 Z M57.7923686,32.4808544 C57.7923686,32.9769342 57.6130194,33.3661603 57.2543156,33.6485442 C56.8956117,33.9309281 56.4008113,34.0721179 55.7698995,34.0721179 C55.1389877,34.0721179 54.6225637,33.9741754 54.2206118,33.7782875 L54.2206118,32.9158761 C54.4750117,33.0354441 54.7453076,33.1295706 55.0315075,33.1982586 C55.3177073,33.2669466 55.5841872,33.30129 55.8309552,33.30129 C56.192203,33.30129 56.4586829,33.2326031 56.6304029,33.0952271 C56.8021228,32.9578512 56.8879815,32.7734141 56.8879815,32.5419101 C56.8879815,32.3333022 56.8091187,32.1564969 56.6513908,32.011489 C56.4936629,31.866481 56.1680359,31.6947636 55.6745,31.4963317 C55.1657002,31.2902678 54.8070017,31.0549515 54.5983938,30.7903755 C54.3897858,30.5257996 54.2854834,30.2078045 54.2854834,29.8363807 C54.2854834,29.3708288 54.450841,29.0044985 54.7815608,28.7373786 C55.1122807,28.4702587 55.5562018,28.3367007 56.1133376,28.3367007 C56.6475775,28.3367007 57.1792653,28.4537229 57.7084171,28.6877708 L57.4184026,29.4318868 C56.9223228,29.2232789 56.4796736,29.1189765 56.0904417,29.1189765 C55.7953379,29.1189765 55.5714693,29.1832115 55.4188293,29.3116835 C55.2661895,29.4401554 55.1898706,29.6099648 55.1898706,29.8211167 C55.1898706,29.9661247 55.2203981,30.0901427 55.2814541,30.1931747 C55.3425101,30.2962067 55.4429965,30.3935132 55.5829165,30.4850972 C55.7228364,30.5766811 55.9746885,30.6975192 56.3384805,30.8476152 C56.7480643,31.0180631 57.0482517,31.1770607 57.2390516,31.3246126 C57.4298515,31.4721646 57.5697694,31.638794 57.6588094,31.824506 C57.7478493,32.0102179 57.7923686,32.2289985 57.7923686,32.4808544 Z M62.9424756,33.9957983 L59.7866605,33.9957983 L59.7866605,28.4168362 L62.9424756,28.4168362 L62.9424756,29.1876641 L60.6986797,29.1876641 L60.6986797,30.706424 L62.8012844,30.706424 L62.8012844,31.4696199 L60.6986797,31.4696199 L60.6986797,33.2211545 L62.9424756,33.2211545 L62.9424756,33.9957983 Z M67.4362341,29.1189765 C66.9121703,29.1189765 66.5000486,29.3046857 66.1998568,29.6761095 C65.8996649,30.0475333 65.7495712,30.5601415 65.7495712,31.2139493 C65.7495712,31.898285 65.8939409,32.4159811 66.1826848,32.7670529 C66.4714287,33.1181248 66.8892743,33.2936581 67.4362341,33.2936581 C67.672826,33.2936581 67.9017825,33.2701264 68.1231104,33.2230625 C68.3444383,33.1759985 68.5746668,33.1155794 68.8138027,33.0418035 L68.8138027,33.8240792 C68.3762349,33.9894392 67.8801625,34.0721179 67.3255707,34.0721179 C66.508947,34.0721179 65.8818606,33.8247177 65.4442928,33.3299099 C65.006725,32.8351021 64.7879444,32.127245 64.7879444,31.2063173 C64.7879444,30.6262855 64.8941547,30.1187653 65.1065786,29.6837415 C65.3190026,29.2487177 65.6261858,28.9154587 66.0281377,28.6839548 C66.4300895,28.4524509 66.9019943,28.3367007 67.4438661,28.3367007 C68.0137219,28.3367007 68.5403218,28.4562668 69.0236816,28.6954027 L68.6955074,29.4547827 C68.5072514,29.3657428 68.3081865,29.2875159 68.0983066,29.2201 C67.8884267,29.152684 67.667738,29.1189765 67.4362341,29.1189765 Z M75.3033185,28.4168362 L75.3033185,32.0267529 C75.3033185,32.4388807 75.2149159,32.7994872 75.0381079,33.1085831 C74.8613,33.417679 74.6056319,33.6555393 74.2710961,33.8221712 C73.9365601,33.9888032 73.5365224,34.0721179 73.0709704,34.0721179 C72.3790028,34.0721179 71.840955,33.8889527 71.4568112,33.5226168 C71.0726673,33.156281 70.8805983,32.6525767 70.8805983,32.011489 L70.8805983,28.4168362 L71.7964333,28.4168362 L71.7964333,31.9466173 C71.7964333,32.4070811 71.9032797,32.7466999 72.1169756,32.9654838 C72.3306715,33.1842677 72.6588425,33.2936581 73.1014983,33.2936581 C73.96137,33.2936581 74.3912994,32.842105 74.3912994,31.9389854 L74.3912994,28.4168362 L75.3033185,28.4168362 Z M78.5568835,31.0117023 L79.1903362,31.0117023 C79.6151844,31.0117023 79.9230035,30.9328396 80.1138036,30.7751116 C80.3046036,30.6173836 80.4000021,30.3833393 80.4000021,30.0729714 C80.4000021,29.7575155 80.2969714,29.531103 80.0909076,29.393727 C79.8848438,29.2563511 79.5744801,29.1876641 79.1598088,29.1876641 L78.5568835,29.1876641 L78.5568835,31.0117023 Z M78.5568835,31.7672663 L78.5568835,33.9957983 L77.6448646,33.9957983 L77.6448646,28.4168362 L79.2208644,28.4168362 C79.9408157,28.4168362 80.4737753,28.5516662 80.8197595,28.8213301 C81.1657437,29.090994 81.3387323,29.4980278 81.3387323,30.0424435 C81.3387323,30.7369553 80.9774906,31.2317557 80.2549947,31.5268596 L81.8309938,33.9957983 L80.7930474,33.9957983 L79.4574549,31.7672663 L78.5568835,31.7672663 Z M86.7101662,33.9957983 L83.5543518,33.9957983 L83.5543518,28.4168362 L86.7101662,28.4168362 L86.7101662,29.1876641 L84.4663708,29.1876641 L84.4663708,30.706424 L86.568975,30.706424 L86.568975,31.4696199 L84.4663708,31.4696199 L84.4663708,33.2211545 L86.7101662,33.2211545 L86.7101662,33.9957983 Z" id="CERTIFIEDSECURE" fill="#323835" opacity="0.600000024"></path>
            </g>
        </g>
    </g>
</svg>