<svg height="40" viewBox="0 0 94 40" width="94" xmlns="http://www.w3.org/2000/svg"><g fill="none"><path d="m24.0155967 8.40814706h9.4672243v1.78233434h-3.7276221v10.0473187h-2.0431736v-10.0473187h-3.7120253zm9.0617089 3.26498424h1.7468354v1.6561514h.0311935c.062387-.2365931.1715642-.4574132.3275317-.6782334.1559674-.2208202.3431284-.4258675.5770796-.5993691.2183544-.1892745.4679023-.3312303.7486437-.4416404.2651447-.1104101.5458861-.1735016.8266275-.1735016.2183544 0 .3743219.0157729.4523056.0157729.0779837.0157729.1715642.0315457.2495479.0315457v1.8138802c-.1247739-.0315458-.2651446-.0473187-.4055153-.0630915-.1403708-.0157729-.2651447-.0315458-.4055154-.0315458-.3119349 0-.6082731.0630915-.8890145.1892745-.2807414.1261829-.5146926.3154574-.733047.5520505-.2027577.2523659-.3743219.5520504-.4990958.9148265-.124774.362776-.187161.7886435-.187161 1.2618296v4.0694006h-1.8716094zm13.5379747 8.5646688h-1.8404159v-1.1987382h-.0311935c-.2339512.4416404-.5770796.7728706-1.0293852 1.0410094s-.9202079.3943218-1.3881103.3943218c-1.1073689 0-1.9183996-.2681388-2.4174955-.8359621-.4990958-.5520505-.7486437-1.4037855-.7486437-2.5236593v-5.4416404h1.8716094v5.2523659c0 .7570978.1403707 1.2933754.4367088 1.5930599.2807414.3154575.6862568.4731862 1.2009494.4731862.3899186 0 .7174503-.0630915.9825949-.1892745.2651447-.1261829.4834991-.2839117.6394666-.488959.1715642-.2050473.2807414-.4574132.3587251-.7413249s.1091772-.5993691.1091772-.9305994v-4.9684542h1.8716094v8.5646688zm3.181736-2.7444795c.062387.5520504.2651446.9305993.6238698 1.1671924.3587251.2208202.795434.3312303 1.2945298.3312303.1715642 0 .3743219-.0157729.5926763-.0473186.2183545-.0315458.4367089-.0788644.6238698-.1577287.2027577-.0788644.3587252-.1892745.4834991-.3470032.124774-.1577287.187161-.3470032.1715642-.5835962-.0155967-.2365931-.0935805-.4416404-.2651446-.5993691-.1715642-.1577287-.3743219-.2681388-.6238699-.3785489-.2495479-.0946372-.545886-.1735016-.8734177-.2365931-.3275316-.0630914-.6550633-.1419558-.9981917-.2208201-.3431283-.0788644-.6862567-.1735016-1.0137884-.2839117-.3275316-.1104101-.608273-.252366-.8734177-.4574133-.2495479-.1892744-.4679024-.4258675-.6082731-.725552-.1559674-.2996846-.2339511-.6466877-.2339511-1.0883281 0-.4731861.1091772-.851735.3431284-1.1671924.2183544-.3154574.5146925-.5678234.8578209-.7570978.3431284-.1892745.7330471-.3312303 1.1541592-.4100947.4211121-.0788643.8266275-.11041 1.2009493-.11041.4367089 0 .857821.0473186 1.2477396.1419558.3899187.0946372.7642405.236593 1.0761754.4574132.3275317.2050474.5926764.488959.795434.8201893.2183545.3312303.3431284.7413249.4055154 1.2145111h-1.9495931c-.0935805-.4574133-.2963382-.7570978-.6082731-.9148265-.3275316-.1577288-.6862568-.2365931-1.1073689-.2365931-.1247739 0-.2963381.0157729-.4679023.0315457-.187161.0315458-.3431284.0630915-.5146926.126183-.1559675.0630915-.2963382.1577287-.4055154.2681388s-.1715642.2681388-.1715642.4574133c0 .236593.0779838.4100946.2339512.5520504.1559675.1419559.3587251.252366.6238698.362776.2495479.0946373.5458861.1735016.8734177.2365931.3275317.0630915.6706601.1419558 1.0137884.2208202.3431284.0788644.6706601.1735016.9981917.2839117.3275317.1104101.6238698.2523659.8734178.4574132.2495479.1892745.4679023.4258675.6238698.7097792.1559674.2839117.2339511.6466877.2339511 1.0567823 0 .5047319-.1091772.9305994-.3431284 1.2933754-.2339511.3470032-.5302893.6466877-.8890144.8675079-.3587252.2208202-.7798373.3785489-1.2165461.488959-.4523056.0946372-.8890145.1577287-1.3257234.1577287-.5302893 0-1.0293851-.0630915-1.4816907-.1892744-.4523057-.126183-.857821-.3154574-1.1853527-.5520505-.3275316-.2523659-.5926763-.5520505-.7798372-.9305994-.187161-.362776-.2963382-.8044164-.3119349-1.3249211h1.8872061v.0157729zm6.1607143-5.8201893h1.4193038v-2.58675081h1.8716094v2.57097791h1.6844484v1.4037855h-1.6844484v4.5741325c0 .2050473.0155967.362776.0311935.5205047.0155967.1419559.0623869.2681388.1091772.362776.0623869.0946373.1559674.1735016.2651446.2208202.124774.0473187.2807414.0788644.4990959.0788644.1247739 0 .2651446 0 .3899186-.0157729.124774-.0157728.2651447-.0315457.3899186-.0630915v1.466877c-.2027577.0315458-.4055153.0473186-.608273.0630915-.2027577.0315457-.3899187.0315457-.6082731.0315457-.4990958 0-.8890145-.0473186-1.1853526-.1419558-.2963382-.0946372-.5302893-.2365931-.7018535-.4100946-.1715642-.1892745-.2807414-.4100947-.3431284-.6782335s-.0935805-.5993691-.1091772-.9463722v-5.0473186h-1.4193038v-1.4353313zm6.2854882 0h1.7624322v1.1671924h.0311935c.2651447-.5047318.6238698-.851735 1.0917721-1.0725552.4679024-.2208202.9669982-.3312303 1.528481-.3312303.6706601 0 1.2477397.1104101 1.7468355.362776.4990958.2365931.9046112.5520505 1.2321428.977918.3275317.4100947.5770796.8990537.7330471 1.4511041.1559674.5520505.2495479 1.1514196.2495479 1.7665615 0 .5835963-.0779837 1.1356467-.2183544 1.6719243-.1559675.5362776-.3743219 1.0252366-.6706601 1.4353313-.2963381.4100946-.67066.7413249-1.1385624.9936908-.4679023.2523659-.9981916.3785489-1.6220615.3785489-.2651446 0-.545886-.0315457-.8110307-.0788643-.2651447-.0473187-.5302893-.126183-.7798372-.2365931-.249548-.1104101-.4834991-.2523659-.6862568-.4258675-.2183545-.1735016-.3899186-.3785489-.5302894-.5993691h-.0311934v4.274448h-1.8716094v-11.7350158zm6.5350362 4.2902208c0-.3785489-.0467903-.7570978-.1559675-1.1198738-.0935804-.362776-.2495479-.6782335-.4523056-.9621451-.2027577-.2839117-.4523056-.5047319-.733047-.6782335-.2963382-.1735015-.6394665-.2523659-1.0137884-.2523659-.7798373 0-1.3725136.2681388-1.778029.8201893-.3899186.5520505-.5926763 1.2933754-.5926763 2.2082019 0 .4416404.0467903.8359621.1559675 1.1987381.1091772.3627761.2495479.6782335.4679023.9463723.2027577.2681388.4523056.4731861.7486438.6309148.2963381.1577287.6238698.2365931 1.0137884.2365931.4367089 0 .7798373-.0946373 1.0761754-.2681388.2963382-.1735016.5302894-.4100947.733047-.6782335.187161-.2839116.3275317-.5993691.4055154-.9621451.0779837-.3785489.124774-.7413249.124774-1.1198738zm3.2909132-7.55520504h1.8716094v1.78233434h-1.8716094zm0 3.26498424h1.8716094v8.5646688h-1.8716094zm3.5404611-3.26498424h1.8716094v11.82965304h-1.8716094zm7.5800181 12.06624604c-.6706601 0-1.2789331-.1104101-1.8092224-.3470031-.5302894-.2365931-.9669982-.5362776-1.3413201-.9305994-.3587252-.3943218-.6394666-.8832808-.8266275-1.4353312-.1871609-.5520505-.2963382-1.1671925-.2963382-1.8138802s.0935805-1.2460568.2963382-1.7981072c.1871609-.5520505.4679023-1.0252366.8266275-1.4353313.3587251-.3943217.8110307-.7097791 1.3413201-.9305993.5302893-.2208202 1.1385623-.3470032 1.8092224-.3470032.67066 0 1.2789331.1104101 1.8092224.3470032.5302893.2208202.9669982.5362776 1.3413201.9305993.3587251.3943218.6394665.8832808.8266275 1.4353313.1871609.5520504.2963381 1.1514195.2963381 1.7981072 0 .6624606-.0935805 1.2618297-.2963381 1.8138802-.2027577.5520504-.4679024 1.0252366-.8266275 1.4353312-.3587252.3943218-.8110308.7097792-1.3413201.9305994-.5302893.2208201-1.1229656.3470031-1.8092224.3470031zm0-1.4984227c.4055153 0 .7798372-.0946372 1.0761754-.2681388.3119349-.1735016.5458861-.4100946.7486437-.6940063.2027577-.2839117.3431284-.615142.4367089-.9621451.0935805-.362776.1403707-.7255521.1403707-1.104101 0-.362776-.0467902-.725552-.1403707-1.088328-.0935805-.3627761-.2339512-.6782335-.4367089-.9621452-.2027576-.2839116-.4523056-.5047318-.7486437-.6782334-.3119349-.1735016-.6706601-.2681388-1.0761754-.2681388-.4055154 0-.7798373.0946372-1.0761754.2681388-.3119349.1735016-.5458861.4100946-.7486438.6782334-.2027577.2839117-.3431284.5993691-.4367089.9621452-.0935804.362776-.1403707.725552-.1403707 1.088328 0 .3785489.0467903.741325.1403707 1.104101.0935805.362776.2339512.6782334.4367089.9621451s.4523056.5205047.7486438.6940063c.3119349.1892744.67066.2681388 1.0761754.2681388zm4.8349909-7.3028391h1.4193038v-2.58675081h1.8716094v2.57097791h1.6844485v1.4037855h-1.6844485v4.5741325c0 .2050473.0155968.362776.0311935.5205047.0155968.1419559.062387.2681388.1091772.362776.062387.0946373.1559675.1735016.2651447.2208202.124774.0473187.2807414.0788644.4990958.0788644.124774 0 .2651447 0 .3899187-.0157729.1247739-.0157728.2651446-.0315457.3899186-.0630915v1.466877c-.2027577.0315458-.4055154.0473186-.6082731.0630915-.2027576.0315457-.3899186.0315457-.608273.0315457-.4990959 0-.8890145-.0473186-1.1853526-.1419558-.2963382-.0946372-.5302894-.2365931-.7018536-.4100946-.1715642-.1892745-.2807414-.4100947-.3431284-.6782335-.0623869-.2681388-.0935804-.5993691-.1091772-.9463722v-5.0473186h-1.4193038v-1.4353313z" fill="#000"/><path d="m22 8h-8.4050104l-2.5873348-7.59185294-2.60264436 7.59185294h-8.40501044l6.79749478 5.3832569-2.6026444 8.0248902 6.79749482-4.965593 6.7974947 4.965593-2.5873347-8.0248902z" fill="#00b67a"/><path d="m15 15.1870415-.4871795-1.7788944-3.5128205 3z" fill="#005128"/><g fill="#ffad00"><path d="m31.5 33.75-3.8206041 2.0086105.7296704-4.2543053-3.0909337-3.0129157 4.2715653-.6206947 1.9103021-3.8706948 1.9103021 3.8706948 4.2715653.6206947-3.0909337 3.0129157.7296704 4.2543053z"/><path d="m45.5 33.75-3.8206041 2.0086105.7296704-4.2543053-3.0909337-3.0129157 4.2715653-.6206947 1.9103021-3.8706948 1.9103021 3.8706948 4.2715653.6206947-3.0909337 3.0129157.7296704 4.2543053z"/><path d="m59.5 33.75-3.8206041 2.0086105.7296704-4.2543053-3.0909337-3.0129157 4.2715653-.6206947 1.9103021-3.8706948 1.9103021 3.8706948 4.2715653.6206947-3.0909337 3.0129157.7296704 4.2543053z"/><path d="m73.5 33.75-3.8206041 2.0086105.7296704-4.2543053-3.0909337-3.0129157 4.2715653-.6206947 1.9103021-3.8706948 1.9103021 3.8706948 4.2715653.6206947-3.0909337 3.0129157.7296704 4.2543053z"/><path d="m87.5 33.75-3.8206041 2.0086105.7296704-4.2543053-3.0909337-3.0129157 4.2715653-.6206947 1.9103021-3.8706948 1.9103021 3.8706948 4.2715653.6206947-3.0909337 3.0129157.7296704 4.2543053z"/></g></g></svg>